<svg xmlns="http://www.w3.org/2000/svg" xmlns:xlink="http://www.w3.org/1999/xlink" width="100" height="100" viewBox="0 0 100 100"><g transform="translate(50 50) scale(0.69 0.69) rotate(15) translate(-50 -50)" style="fill:#000000"><svg fill="#000000" xmlns:dc="http://purl.org/dc/elements/1.1/" xmlns:cc="http://creativecommons.org/ns#" xmlns:rdf="http://www.w3.org/1999/02/22-rdf-syntax-ns#" xmlns:svg="http://www.w3.org/2000/svg" xmlns="http://www.w3.org/2000/svg" xmlns:sodipodi="http://sodipodi.sourceforge.net/DTD/sodipodi-0.dtd" xmlns:inkscape="http://www.inkscape.org/namespaces/inkscape" version="1.1" x="0px" y="0px" viewBox="0 0 100 100"><g transform="translate(0,-952.36218)"><path style="text-indent:0;text-transform:none;direction:ltr;block-progression:tb;baseline-shift:baseline;color:#000000;enable-background:accumulate;" d="m 44.9688,957.36216 c -15.4268,0 -27.9688,12.5598 -27.9688,28 0,3.7583 0.9734,7.9061 2.1875,11.0625 7.6979,16.37514 15.399,32.79454 23.0937,49.18754 0.4799,1.0278 1.5846,1.75 2.7188,1.75 1.1342,0 2.2388,-0.7222 2.7188,-1.75 2.6555,-5.6307 5.2976,-11.266 7.9374,-16.9062 2.7282,1.6681 5.9244,2.6562 9.3438,2.6562 9.9116,0 18,-8.0884 18,-18 0,-7.8651 -5.1004,-14.56154 -12.1562,-17.00004 1.2119,-3.156 2.1562,-7.2695 2.1562,-11 0,-15.4492 -12.6046,-28 -28.0312,-28 z m 0,6 c 12.1899,0 22.0312,9.7978 22.0312,22 0,2.5973 -0.8759,6.4841 -1.8125,8.9062 l -0.5313,1.125 C 54.9034,995.57926 47,1003.5664 47,1013.3622 c 0,4.2395 1.4995,8.1367 3.9688,11.2188 L 45,1037.2997 24.8125,994.26836 C 23.8785,991.84046 23,987.95406 23,985.36216 c 0,-12.2112 9.7788,-22 21.9688,-22 z m 0.031,7 c -8.2464,0 -15,6.7493 -15,15 0,8.2508 6.7535,15.00004 15,15.00004 8.2465,0 15,-6.74014 15,-15.00004 0,-8.2598 -6.7535,-15 -15,-15 z m 0,6 c 5.0096,0 9,3.9872 9,9 0,5.0129 -3.9905,9 -9,9 -5.0094,0 -9,-3.978 -9,-9 0,-5.0219 3.9905,-9 9,-9 z m 20,24.00004 c 7.2093,0 13,5.7907 13,13 0,7.2094 -5.7907,13 -13,13 -7.2092,0 -13,-5.7906 -13,-13 0,-7.2093 5.7908,-13 13,-13 z m 6.9375,6.4375 a 2.50025,2.50025 0 0 0 -1.875,0.9687 l -6.5313,8.1563 -5.0624,-3.625 a 2.50025,2.50025 0 1 0 -2.9063,4.0625 l 7,5 a 2.50025,2.50025 0 0 0 3.4063,-0.4688 l 8,-10 a 2.50025,2.50025 0 0 0 -2.0313,-4.0937 z" fill="#000000" fill-opacity="1" stroke="none" marker="none" visibility="visible" display="inline" overflow="visible"></path></g></svg></g></svg>