<?xml version="1.0" encoding="iso-8859-1"?>
<!-- Generator: Adobe Illustrator 19.0.0, SVG Export Plug-In . SVG Version: 6.00 Build 0)  -->
<svg version="1.1" id="Layer_1" xmlns="http://www.w3.org/2000/svg" xmlns:xlink="http://www.w3.org/1999/xlink" x="0px" y="0px"
	 viewBox="0 0 425.447 425.447" style="enable-background:new 0 0 425.447 425.447;" xml:space="preserve">
<g>
	<title>Thumbs Down</title>
	<g id="Thumbs_Down_1_">
		<path style="fill:#FEC33C;" d="M327.679,241.418V64.295c0-19.564,15.86-35.424,35.424-35.424h61.993l0,0v247.971l0,0h-61.993
			C343.539,276.842,327.679,260.982,327.679,241.418z"/>
		<path style="fill:#F5E6C6;" d="M33.921,211.927c-3.391,5.282-5.176,11.435-5.137,17.712v1.683
			c0.743,22.874,19.188,41.203,42.067,41.801l95.558,5.934l-5.668,29.668c-3.576,19.065-0.249,38.781,9.387,55.616l5.314,8.856
			c6.199,10.804,10.362,17.004,22.937,19.661h1.417c7.791,1.618,15.901-0.223,22.229-5.048c6.175-4.692,9.81-11.994,9.83-19.749
			v-25.683c0.027-12.32,3.526-24.383,10.096-34.805l31.439-50.126c4.941-7.77,13.553-12.428,22.76-12.31h34.716V42.952h-34.362
			c-6.503-0.015-12.982-0.788-19.306-2.303l-30.377-7.262c-14.736-3.531-29.836-5.315-44.989-5.314c-6.199,0-12.487,0-18.686,0.886
			l-89.447,9.742c-26.302,2.305-46.627,24.082-47.115,50.48v4.517c0.012,1.034,0.222,2.056,0.62,3.011
			c-11.383,7.666-18.244,20.461-18.332,34.185v5.137c-0.012,3.811,0.868,7.571,2.568,10.982
			c-12.433,7.505-20.103,20.903-20.281,35.424v4.517C11.471,199.783,21.174,210.431,33.921,211.927z"/>
		<path style="fill:#C89406;" d="M416.24,267.986h-44.281c-26.568,0-35.424-8.856-35.424-35.424V73.151
			c0-26.568,8.856-35.424,35.424-35.424v150.554c0,4.891,3.965,8.856,8.856,8.856s8.856-3.965,8.856-8.856V37.727h26.568
			c4.891,0,8.856-3.965,8.856-8.856s-3.965-8.856-8.856-8.856h-44.281c-21.078,0-35.424,5.934-44.281,17.712h-42.244
			c-6.657,0.026-13.291-0.777-19.749-2.391l-30.376-7.616c-20.826-5.225-42.403-6.784-63.764-4.605L82.541,33.299
			c-26.973,3.076-47.289,25.99-47.115,53.137v4.428c0.019,1.062,0.229,2.112,0.62,3.1c-11.384,8.232-18.187,21.377-18.332,35.424
			v5.756c-0.004,3.952,0.873,7.855,2.568,11.424c-12.585,8.116-20.215,22.044-20.281,37.019v4.694
			c-0.131,13.335,9.644,24.702,22.849,26.568c-3.246,5.347-5.018,11.458-5.137,17.712v1.771c-0.03,23.616,18.48,43.1,42.067,44.281
			l98.303,4.959l-5.668,31.085c-3.626,19.926-0.313,40.494,9.387,58.273l5.314,9.742c6.163,11.338,16.965,19.423,29.579,22.14h1.417
			c1.833,0.403,3.703,0.611,5.579,0.62c14.673,0,26.568-11.895,26.568-26.568v-26.568c-0.007-12.853,3.483-25.466,10.096-36.487
			l31.439-52.428c4.746-8.076,13.393-13.056,22.76-13.107h26.568c5.137,23.912,21.609,35.424,51.188,35.424h44.281
			c4.891,0,8.856-3.965,8.856-8.856s-3.965-8.856-8.856-8.856L416.24,267.986L416.24,267.986z M294.557,232.561
			c-15.472,0.09-29.775,8.248-37.727,21.52l-31.439,52.428c-8.328,13.729-12.767,29.463-12.841,45.521v26.569
			c0.109,4.89-3.766,8.943-8.656,9.052c-0.692,0.015-1.383-0.05-2.06-0.196h-1.417c-7.556-1.64-14.022-6.49-17.712-13.284
			l-5.314-9.742c-7.758-14.211-10.415-30.651-7.528-46.583l6.022-33.299l10.096,0.266l0,0c4.891,0,8.856-3.965,8.856-8.856
			s-3.965-8.856-8.856-8.856l-125.757-6.288c-14.152-0.708-25.258-12.399-25.24-26.568v-1.683c0-9.782,7.93-17.712,17.712-17.712
			h26.568c4.891,0,8.856-3.965,8.856-8.856s-3.965-8.856-8.856-8.856H26.571c-4.891,0-8.856-3.965-8.856-8.856v-4.694
			c-0.131-13.336,9.644-24.702,22.849-26.568l31.528-4.162c4.891-0.685,8.301-5.205,7.616-10.096
			c-0.685-4.891-5.205-8.301-10.096-7.616l-31.616,4.517h-0.975c-0.936-1.331-1.488-2.893-1.594-4.517v-5.402
			c-0.176-13.133,9.271-24.424,22.229-26.568l23.557-3.454c4.891-0.807,8.202-5.426,7.395-10.317
			c-0.807-4.891-5.426-8.202-10.317-7.395l-23.557,3.897H53.14l0,0c-0.115-18.108,13.446-33.388,31.439-35.424l89.358-10.185
			c19.285-1.949,38.761-0.541,57.565,4.162l30.376,7.616c7.733,1.938,15.674,2.92,23.646,2.923h35.424
			c-1.372,5.955-2.085,12.044-2.125,18.155v159.41h-24.266V232.561z"/>
		<path style="fill:#C89406;" d="M380.816,214.849c-4.891,0-8.856,3.965-8.856,8.856v17.712c0,4.891,3.965,8.856,8.856,8.856
			s8.856-3.965,8.856-8.856v-17.712C389.672,218.814,385.707,214.849,380.816,214.849z"/>
	</g>
</g>
<g>
</g>
<g>
</g>
<g>
</g>
<g>
</g>
<g>
</g>
<g>
</g>
<g>
</g>
<g>
</g>
<g>
</g>
<g>
</g>
<g>
</g>
<g>
</g>
<g>
</g>
<g>
</g>
<g>
</g>
</svg>
